<svg xmlns="http://www.w3.org/2000/svg" version="1.1" width="96" height="96" viewbox="0 0 96 96"><rect x="0" y="0" width="96" height="96" fill="#"></rect><g transform="translate(24.648, 59.400000000000006)"><path d="M1.82-6.14Q1.39-6.82 1.39-6.96 1.39-7.1 1.87-7.58 2.35-8.06 2.5-8.06L2.5-8.06Q2.83-8.06 3.36-7.25L3.36-7.25Q6.05-2.98 6.05 1.97L6.05 1.97Q6.05 2.93 5.95 3.89L5.95 3.89Q5.86 4.61 5.81 4.66L5.81 4.66Q5.81 4.7 6.7 3.84 7.58 2.98 9.6 0.96 11.62-1.06 13.51-2.95 15.41-4.85 18.91-8.33 22.42-11.81 24.82-14.21L24.82-14.21Q43.63-33.12 43.97-33.26L43.97-33.26Q44.26-33.36 44.35-33.36L44.35-33.36Q44.74-33.36 45.02-33.05 45.31-32.74 45.31-32.35L45.31-32.35Q45.31-32.16 45.26-32.06L45.26-32.06Q45.22-31.87 26.21-12.86L26.21-12.86Q14.02-0.67 10.63 2.74 7.25 6.14 7.34 6.14L7.34 6.14Q8.45 5.9 10.18 5.9L10.18 5.9Q10.94 5.9 11.9 6L11.9 6Q15.89 6.53 19.2 8.59L19.2 8.59Q20.02 9.12 20.02 9.46L20.02 9.46Q20.02 9.6 19.54 10.08 19.06 10.56 18.91 10.56L18.91 10.56Q18.72 10.56 18.1 10.13L18.1 10.13Q15.41 8.45 12.14 7.92L12.14 7.92Q11.33 7.78 9.79 7.78L9.79 7.78Q6.67 7.78 3.94 9.02L3.94 9.02Q3.74 9.12 3.5 9.22 3.26 9.31 3.22 9.31L3.22 9.31Q3.02 9.36 2.83 9.19 2.64 9.02 2.64 8.78L2.64 8.78Q2.64 8.69 2.83 8.21L2.83 8.21Q4.13 5.47 4.13 2.16L4.13 2.16Q4.13-2.35 1.82-6.14L1.82-6.14Z"></path></g></svg>