<svg xmlns="http://www.w3.org/2000/svg" xmlns:xlink="http://www.w3.org/1999/xlink" version="1.1" x="0px" y="0px" viewBox="0 0 100 125" enable-background="new 0 0 100 100" xml:space="preserve"><g><path d="M64.6,23.9c0,0,0.1,0.1,0.2,0.3c-0.1,0-0.2,0-0.2,0.1c-0.1,0-0.2,0.1-0.2,0.1c-0.1-0.2-0.2-0.3-0.2-0.3   c0-0.1-0.1-0.1-0.2-0.1l-1.1,0.4c-0.1,0-0.2,0.1-0.1,0.2c0,0,0.1,0.1,0.2,0.3c-0.2,0.1-0.3,0.1-0.5,0.2c-0.1-0.2-0.2-0.3-0.2-0.3   c0-0.1-0.1-0.1-0.2-0.1l-1.1,0.6c-0.1,0.1-0.1,0.2-0.1,0.2c0,0,0.1,0.1,0.2,0.3c-0.2,0.1-0.3,0.2-0.4,0.2c-0.1-0.2-0.2-0.3-0.2-0.3   c0-0.1-0.2-0.1-0.3,0l-1,0.7c-0.1,0.1-0.1,0.2-0.1,0.2c0,0,0.1,0.1,0.2,0.3c-0.1,0.1-0.3,0.2-0.4,0.3c-0.2-0.1-0.3-0.3-0.3-0.3   c0-0.1-0.2-0.1-0.3,0l-1,0.8C57,27.9,57,28,57.1,28c0,0,0.1,0.1,0.3,0.2c-0.1,0.1-0.3,0.2-0.4,0.3c-0.2-0.1-0.3-0.2-0.3-0.2   c-0.1-0.1-0.2-0.1-0.3,0l-0.9,0.9c-0.1,0.1-0.1,0.2,0,0.3c0,0,0.1,0.1,0.3,0.2c-0.1,0.1-0.2,0.2-0.4,0.4c-0.2-0.1-0.3-0.2-0.3-0.2   c-0.1-0.1-0.2,0-0.2,0l-0.8,0.9c-0.1,0.1-0.1,0.2,0,0.3c0,0,0.1,0.1,0.3,0.2c-0.1,0.1-0.2,0.3-0.3,0.4c-0.2-0.1-0.3-0.2-0.3-0.2   c-0.1-0.1-0.2,0-0.2,0.1l-0.7,1c-0.1,0.1-0.1,0.2,0,0.3c0,0,0.1,0.1,0.3,0.1c-0.1,0.1-0.2,0.3-0.3,0.4c-0.2-0.1-0.3-0.1-0.3-0.1   c-0.1,0-0.2,0-0.2,0.1l-0.6,1.1c-0.1,0.1,0,0.2,0,0.3c0,0,0.1,0,0.3,0.1c-0.1,0.2-0.2,0.3-0.2,0.5c-0.2-0.1-0.4-0.1-0.4-0.1   c-0.1,0-0.2,0-0.2,0.1l-0.5,1.1c0,0.1,0,0.2,0.1,0.2c0,0,0.1,0,0.4,0.1c-0.1,0.2-0.1,0.3-0.2,0.5c-0.2,0-0.4-0.1-0.4-0.1   c-0.1,0-0.2,0-0.2,0.1L50,38.4c0,0.1,0,0.2,0.1,0.2c0,0,0.1,0,0.4,0c-0.1,0.2-0.1,0.3-0.2,0.5c-0.2,0-0.4,0-0.4,0   c-0.1,0-0.2,0-0.2,0.2l-0.3,1.2c0,0.1,0,0.2,0.1,0.2c0,0,0.2,0,0.4,0c0,0.2-0.1,0.3-0.1,0.5c-0.2,0-0.4,0-0.4,0   c-0.1,0-0.2,0.1-0.2,0.2l-0.2,1.2c0,0.1,0,0.2,0.1,0.2c0,0,0.1,0,0.4,0c0,0.2,0,0.3-0.1,0.5c-0.2,0-0.4,0-0.4,0   c-0.1,0-0.2,0.1-0.2,0.2l0,1.2c0,0.1,0.1,0.2,0.2,0.2c0,0,0.1,0,0.4-0.1c0,0.2,0,0.3,0,0.5c-0.2,0-0.4,0.1-0.4,0.1   c-0.1,0-0.2,0.1-0.1,0.2L49,47c0,0.1,0.1,0.2,0.2,0.2c0,0,0.1,0,0.3-0.1c0,0.2,0,0.3,0,0.5c-0.2,0.1-0.3,0.1-0.3,0.1   c-0.1,0-0.1,0.1-0.1,0.2l0.2,1.2c0,0.1,0.1,0.2,0.2,0.2c0,0,0.1-0.1,0.3-0.1c0,0.2,0.1,0.3,0.1,0.5c-0.2,0.1-0.3,0.1-0.3,0.1   c-0.1,0-0.1,0.1-0.1,0.2l0.3,1.2c0,0.1,0.1,0.2,0.2,0.2c0,0,0.1-0.1,0.3-0.2c0,0.2,0.1,0.3,0.1,0.5c-0.2,0.1-0.3,0.2-0.3,0.2   c-0.1,0-0.1,0.1-0.1,0.2l0.4,1.1c0,0.1,0.1,0.2,0.2,0.1c0,0,0.1-0.1,0.3-0.2c0.1,0.2,0.1,0.3,0.2,0.5c-0.2,0.1-0.3,0.2-0.3,0.2   c-0.1,0-0.1,0.1-0.1,0.3c0,0,0,0.1,0.1,0.2c0.1,0.1,0.1,0.2,0.2,0.4c0.1,0.3,0.3,0.5,0.3,0.5c0.1,0.1,0.2,0.2,0.2,0.1   c0,0,0.1-0.1,0.3-0.2c0.1,0.2,0.2,0.3,0.2,0.4c-0.2,0.1-0.3,0.2-0.3,0.2c-0.1,0-0.1,0.2,0,0.3c0,0,0,0.1,0.1,0.2   c0.1,0.1,0.1,0.2,0.2,0.4c0.2,0.3,0.3,0.5,0.3,0.5c0.1,0.1,0.2,0.1,0.2,0.1c0,0,0.1-0.1,0.2-0.2c0.1,0.1,0.2,0.3,0.3,0.4   c-0.1,0.1-0.3,0.2-0.3,0.2c-0.1,0-0.1,0.2,0,0.3c0,0,0.7,1,0.7,1c0.1,0.1,0.2,0.1,0.3,0.1c0,0,0.1-0.1,0.2-0.3   c0.1,0.1,0.2,0.3,0.3,0.4c-0.1,0.2-0.2,0.3-0.2,0.3c-0.1,0.1-0.1,0.2,0,0.3c0,0,0.8,0.9,0.8,0.9c0.1,0.1,0.2,0.1,0.3,0   c0,0,0.1-0.1,0.2-0.3c0.1,0.1,0.2,0.2,0.4,0.4c-0.1,0.2-0.2,0.3-0.2,0.3c-0.1,0.1,0,0.2,0,0.3c0,0,0.9,0.8,0.9,0.8   c0.1,0.1,0.2,0.1,0.3,0c0,0,0.1-0.1,0.2-0.3c0.1,0.1,0.3,0.2,0.4,0.3c-0.1,0.2-0.2,0.3-0.2,0.3c-0.1,0.1,0,0.2,0.1,0.3   c0,0,1,0.7,1,0.7c0.1,0.1,0.2,0.1,0.3,0c0,0,0.1-0.1,0.1-0.3c0.1,0.1,0.3,0.2,0.4,0.3c-0.1,0.2-0.1,0.3-0.1,0.3   c0,0.1,0,0.2,0.1,0.2c0,0,1.1,0.6,1.1,0.6c0.1,0.1,0.2,0,0.3,0c0,0,0-0.1,0.1-0.3c0.1,0.1,0.3,0.2,0.5,0.2   c-0.1,0.2-0.1,0.3-0.1,0.3c0,0.1,0,0.2,0.1,0.2c0,0,1.1,0.5,1.1,0.5c0.1,0,0.2,0,0.3-0.1c0,0,0-0.1,0.1-0.3   c0.2,0.1,0.3,0.1,0.5,0.2c0,0.2-0.1,0.4-0.1,0.4c0,0.1,0,0.2,0.1,0.2c0,0,1.2,0.4,1.2,0.4c0.1,0,0.2,0,0.2-0.1c0,0,0-0.1,0-0.3   c0.2,0.1,0.3,0.1,0.5,0.2c0,0.2,0,0.4,0,0.4c0,0.1,0,0.2,0.1,0.2c0,0,1.2,0.3,1.2,0.3c0.1,0,0.2,0,0.2-0.1c0,0,0-0.1,0-0.3   c0.2,0,0.3,0.1,0.5,0.1c0,0.2,0,0.4,0,0.4c0,0.1,0.1,0.2,0.2,0.2c0,0,1.2,0.2,1.2,0.2c0.1,0,0.2,0,0.2-0.1c0,0,0-0.1,0-0.3   c0.2,0,0.3,0,0.5,0.1c0,0.2,0,0.4,0,0.4c0,0.1,0.1,0.2,0.2,0.2c0,0,1.2,0.1,1.2,0.1c0.1,0,0.2-0.1,0.2-0.2c0,0,0-0.1-0.1-0.3   c0.2,0,0.3,0,0.5,0c0,0.2,0.1,0.3,0.1,0.3c0,0.1,0.1,0.2,0.2,0.2c0,0,1.2-0.1,1.2-0.1c0.1,0,0.2-0.1,0.2-0.2c0,0,0-0.1-0.1-0.3   c0.2,0,0.3,0,0.5,0c0.1,0.2,0.1,0.3,0.1,0.3c0,0.1,0.1,0.2,0.2,0.1c0,0,0.1,0,0.2,0c0.1,0,0.3,0,0.4-0.1c0.3-0.1,0.6-0.1,0.6-0.1   c0.1,0,0.2-0.1,0.2-0.2c0,0,0-0.1-0.1-0.3c0.2,0,0.3-0.1,0.5-0.1c0.1,0.2,0.1,0.3,0.1,0.3c0,0.1,0.1,0.1,0.2,0.1c0,0,0.1,0,0.2,0   c0.1,0,0.3,0,0.4-0.1c0.3-0.1,0.6-0.2,0.6-0.2c0.1,0,0.2-0.1,0.2-0.2c0,0-0.1-0.1-0.1-0.3c0.2,0,0.3-0.1,0.5-0.1   c0.1,0.2,0.2,0.3,0.2,0.3c0,0.1,0.1,0.1,0.2,0.1c0,0,0.3-0.1,0.6-0.2c0.3-0.1,0.6-0.2,0.6-0.2c0.1,0,0.2-0.1,0.1-0.2   c0,0-0.1-0.1-0.2-0.3c0.2-0.1,0.3-0.1,0.5-0.2c0.1,0.2,0.2,0.3,0.2,0.3c0,0.1,0.1,0.1,0.3,0.1c0,0,0.3-0.1,0.6-0.2   c0.3-0.1,0.6-0.3,0.6-0.3c0.1-0.1,0.2-0.2,0.1-0.2c0,0-0.1-0.1-0.2-0.3c0.2-0.1,0.3-0.1,0.5-0.2c0.1,0.2,0.2,0.3,0.2,0.3   c0,0.1,0.2,0.1,0.3,0c0,0,0.3-0.1,0.5-0.3c0.1-0.1,0.3-0.2,0.4-0.2c0.1-0.1,0.2-0.1,0.2-0.1c0.1-0.1,0.1-0.2,0.1-0.2   c0,0-0.1-0.1-0.2-0.3c0.1-0.1,0.3-0.2,0.4-0.3c0.1,0.1,0.2,0.2,0.2,0.2c0,0.1,0.2,0.1,0.3,0c0,0,0.3-0.2,0.5-0.3   c0.1-0.1,0.3-0.2,0.3-0.2c0.1-0.1,0.2-0.1,0.2-0.1c0.1-0.1,0.1-0.2,0.1-0.3c0,0-0.1-0.1-0.3-0.2c0.1-0.1,0.3-0.2,0.4-0.3   c0.2,0.1,0.3,0.2,0.3,0.2c0.1,0.1,0.2,0.1,0.3,0c0,0,0.2-0.2,0.5-0.4c0.1-0.1,0.2-0.2,0.3-0.3c0.1-0.1,0.1-0.1,0.1-0.1   c0.1-0.1,0.1-0.2,0-0.3c0,0-0.1-0.1-0.3-0.2c0.1-0.1,0.3-0.2,0.4-0.3c0.2,0.1,0.3,0.2,0.3,0.2c0.1,0.1,0.2,0,0.3,0   c0,0,0.2-0.2,0.4-0.4c0.1-0.1,0.2-0.2,0.3-0.3c0.1-0.1,0.1-0.1,0.1-0.1C88,60.1,88,60,88,60c0,0-0.1-0.1-0.3-0.2   c0.1-0.1,0.2-0.3,0.3-0.4c0.2,0.1,0.3,0.2,0.3,0.2c0.1,0.1,0.2,0,0.3-0.1c0,0,0.2-0.2,0.4-0.5c0.1-0.1,0.2-0.2,0.3-0.3   c0.1-0.1,0.1-0.2,0.1-0.2c0.1-0.1,0.1-0.2,0-0.3c0,0-0.1-0.1-0.3-0.2c0.1-0.1,0.2-0.3,0.3-0.4c0.2,0.1,0.3,0.1,0.3,0.1   c0.1,0.1,0.2,0,0.2-0.1c0,0,0.2-0.3,0.4-0.5c0.1-0.1,0.2-0.3,0.2-0.4c0.1-0.1,0.1-0.2,0.1-0.2c0.1-0.1,0-0.2,0-0.3   c0,0-0.1-0.1-0.3-0.1c0.1-0.1,0.2-0.3,0.3-0.4c0.2,0.1,0.3,0.1,0.3,0.1c0.1,0,0.2,0,0.2-0.1c0,0,0.2-0.3,0.3-0.5   c0.1-0.1,0.1-0.3,0.2-0.4c0-0.1,0.1-0.2,0.1-0.2c0-0.1,0-0.2-0.1-0.3c0,0-0.1,0-0.3-0.1c0.1-0.2,0.2-0.3,0.2-0.5   c0.2,0,0.3,0.1,0.3,0.1c0.1,0,0.2,0,0.2-0.1c0,0,0.1-0.3,0.2-0.6c0.1-0.1,0.1-0.3,0.2-0.4c0-0.1,0.1-0.2,0.1-0.2   c0-0.1,0-0.2-0.1-0.2c0,0-0.1,0-0.4-0.1c0.1-0.2,0.1-0.3,0.2-0.5c0.2,0,0.3,0,0.3,0c0.1,0,0.2,0,0.2-0.1c0,0,0.1-0.3,0.2-0.6   c0.1-0.1,0.1-0.3,0.1-0.4c0-0.1,0-0.2,0-0.2c0-0.1,0-0.2-0.1-0.2c0,0-0.1,0-0.4,0c0-0.2,0.1-0.3,0.1-0.5c0.2,0,0.3,0,0.3,0   c0.1,0,0.2-0.1,0.2-0.2c0,0,0.1-0.3,0.1-0.6c0-0.1,0.1-0.3,0.1-0.4c0-0.1,0-0.2,0-0.2c0-0.1,0-0.2-0.1-0.2c0,0-0.1,0-0.4,0   c0-0.2,0.1-0.3,0.1-0.5c0.2,0,0.3,0,0.3,0c0.1,0,0.2-0.1,0.2-0.2c0,0,0-0.3,0.1-0.6c0-0.2,0-0.3,0-0.4c0-0.1,0-0.2,0-0.2   c0-0.1-0.1-0.2-0.2-0.2c0,0-0.1,0-0.3,0c0-0.2,0-0.3,0-0.5c0.2,0,0.3-0.1,0.3-0.1c0.1,0,0.2-0.1,0.2-0.2c0,0,0-0.3,0-0.6   c0-0.2,0-0.3,0-0.4c0-0.1,0-0.2,0-0.2c0-0.1-0.1-0.2-0.2-0.2c0,0-0.1,0-0.3,0.1c0-0.2,0-0.3,0-0.5c0.2,0,0.3-0.1,0.3-0.1   c0.1,0,0.2-0.1,0.1-0.2c0,0,0-0.3,0-0.6c0-0.2,0-0.3,0-0.4c0-0.1,0-0.2,0-0.2c0-0.1-0.1-0.2-0.2-0.2c0,0-0.1,0-0.3,0.1   c0-0.2,0-0.3-0.1-0.5c0.2-0.1,0.3-0.1,0.3-0.1c0.1,0,0.1-0.1,0.1-0.2c0,0-0.2-1.2-0.2-1.2c0-0.1-0.1-0.2-0.2-0.2   c0,0-0.1,0.1-0.3,0.1c0-0.2-0.1-0.3-0.1-0.5c0.2-0.1,0.3-0.1,0.3-0.1c0.1,0,0.1-0.1,0.1-0.2c0,0-0.1-0.3-0.2-0.6   c0-0.1-0.1-0.3-0.1-0.4c0-0.1-0.1-0.2-0.1-0.2c0-0.1-0.1-0.2-0.2-0.1c0,0-0.1,0.1-0.3,0.2c-0.1-0.2-0.1-0.3-0.2-0.5   c0.2-0.1,0.3-0.2,0.3-0.2c0.1,0,0.1-0.1,0.1-0.2l-0.4-1.1c-0.1-0.1-0.2-0.2-0.2-0.1c0,0-0.1,0.1-0.3,0.2c-0.1-0.2-0.1-0.3-0.2-0.5   c0.2-0.1,0.3-0.2,0.3-0.2c0.1,0,0.1-0.2,0-0.3L90.8,34c0-0.1-0.2-0.1-0.2-0.1c0,0-0.1,0.1-0.3,0.2c-0.1-0.1-0.2-0.3-0.3-0.4   c0.2-0.1,0.3-0.2,0.3-0.2c0.1,0,0.1-0.2,0-0.3l-0.7-1c-0.1-0.1-0.2-0.1-0.2-0.1c0,0-0.1,0.1-0.3,0.3c-0.1-0.1-0.2-0.3-0.3-0.4   c0.1-0.2,0.2-0.3,0.2-0.3c0.1-0.1,0.1-0.2,0-0.3l-0.8-1c-0.1-0.1-0.2-0.1-0.2-0.1c0,0-0.1,0.1-0.2,0.3c-0.1-0.1-0.2-0.3-0.3-0.4   c0.1-0.2,0.2-0.3,0.2-0.3c0.1-0.1,0.1-0.2,0-0.3l-0.9-0.9c-0.1-0.1-0.2-0.1-0.3,0c0,0-0.1,0.1-0.2,0.3c-0.1-0.1-0.3-0.2-0.4-0.3   c0.1-0.2,0.2-0.3,0.2-0.3c0.1-0.1,0-0.2-0.1-0.3l-0.9-0.8c-0.1-0.1-0.2-0.1-0.3,0c0,0-0.1,0.1-0.2,0.3c-0.1-0.1-0.3-0.2-0.4-0.3   c0.1-0.2,0.2-0.3,0.2-0.3c0.1-0.1,0-0.2-0.1-0.2l-1-0.7c-0.1-0.1-0.2-0.1-0.3,0c0,0-0.1,0.1-0.1,0.3c-0.1-0.1-0.3-0.2-0.4-0.3   c0.1-0.2,0.1-0.3,0.1-0.3c0-0.1,0-0.2-0.1-0.2l-1.1-0.6c-0.1-0.1-0.2,0-0.3,0c0,0,0,0.1-0.1,0.4c-0.2-0.1-0.3-0.1-0.5-0.2   c0.1-0.2,0.1-0.3,0.1-0.3c0-0.1,0-0.2-0.1-0.2l-1.1-0.5c-0.1-0.1-0.2,0-0.2,0.1c0,0,0,0.2-0.1,0.4c-0.2-0.1-0.3-0.1-0.5-0.2   c0-0.2,0.1-0.4,0.1-0.4c0-0.1,0-0.2-0.1-0.2l-1.2-0.4c-0.1,0-0.2,0-0.2,0.1c0,0,0,0.2,0,0.4c-0.2,0-0.3-0.1-0.5-0.1   c0-0.2,0-0.4,0-0.4c0-0.1-0.1-0.2-0.2-0.2l-1.2-0.3c-0.1,0-0.2,0-0.2,0.1c0,0,0,0.2,0,0.4c-0.2,0-0.3-0.1-0.5-0.1   c0-0.2,0-0.4,0-0.4c0-0.1-0.1-0.2-0.2-0.2l-1.2-0.2c-0.1,0-0.2,0.1-0.2,0.1c0,0,0,0.2,0,0.4c-0.2,0-0.3,0-0.5,0c0-0.2,0-0.4,0-0.4   c0-0.1-0.1-0.2-0.2-0.2l-1.2,0c-0.1,0-0.2,0.1-0.2,0.2c0,0,0,0.1,0.1,0.4c-0.2,0-0.3,0-0.5,0c0-0.2-0.1-0.3-0.1-0.3   c0-0.1-0.1-0.2-0.2-0.1l-1.2,0.1c-0.1,0-0.2,0.1-0.2,0.2c0,0,0,0.1,0.1,0.4c-0.2,0-0.3,0-0.5,0.1c-0.1-0.2-0.1-0.3-0.1-0.3   c0-0.1-0.1-0.1-0.2-0.1l-1.2,0.2c-0.1,0-0.2,0.1-0.2,0.2c0,0,0.1,0.1,0.1,0.3c-0.2,0-0.3,0.1-0.5,0.1c-0.1-0.2-0.1-0.3-0.1-0.3   c0-0.1-0.1-0.1-0.2-0.1l-1.2,0.3C64.6,23.7,64.5,23.8,64.6,23.9z M86.8,40c2.8,8.5-1.8,17.7-10.3,20.5c-8.5,2.8-17.7-1.8-20.5-10.3   c-2.8-8.5,1.8-17.7,10.3-20.5C74.8,26.9,84,31.5,86.8,40z"/></g><g><path d="M85.9,40.3c-2.6-8-11.3-12.4-19.4-9.8c-8,2.6-12.4,11.3-9.8,19.4c2.6,8,11.3,12.4,19.4,9.8C84.2,57,88.6,48.3,85.9,40.3z    M76,59.2c-7.8,2.6-16.2-1.7-18.7-9.4C54.7,42,59,33.6,66.7,31.1c7.8-2.6,16.2,1.7,18.7,9.4C88,48.2,83.8,56.6,76,59.2z"/><path d="M84.8,40.7c-0.1-0.3-0.2-0.7-0.4-1.1l-0.2-0.6l-0.5,0.3c-0.3,0.2-0.7,0.4-1.3,0.7c-1.4,0.7-3.6,1.9-5.3,2.6l-0.1,0   c-0.4-0.9-0.9-1.6-1.6-2.2l0.1-0.1c1.2-1.4,2.9-3.1,4.1-4.2c0.5-0.4,0.8-0.8,1.1-1l0.5-0.4l-0.5-0.4c-1.6-1.4-3.5-2.4-5.5-3   l-0.6-0.2l-0.1,0.6c0,0.3-0.1,0.9-0.2,1.5C74,35,73.5,37.4,73,39.1l0,0.1c-0.9-0.2-1.8-0.3-2.7-0.1l0-0.1c-0.3-1.8-0.6-4.2-0.7-5.7   c0-0.6-0.1-1.1-0.1-1.5l0-0.6l-0.6,0.1c-0.7,0.1-1.3,0.3-1.9,0.5c-1.3,0.4-2.6,1.1-3.8,1.9l-0.5,0.3l0.4,0.4c0.3,0.3,0.6,0.6,1,1.1   c1,1.2,2.6,3.1,3.6,4.5l0.1,0.1c-0.8,0.5-1.4,1.2-1.8,2l-0.1-0.1c-1.6-0.9-3.6-2.2-4.9-3.1c-0.5-0.3-0.9-0.6-1.2-0.9l-0.5-0.4   L59,38.3c-1,1.8-1.6,3.9-1.7,6l0,0.6l0.6-0.1c0.3,0,0.8-0.1,1.5-0.1c1.5-0.1,4-0.1,5.8,0l0.1,0c0,0.8,0,1.5,0.3,2.3   c0,0.1,0.1,0.3,0.2,0.4l-0.1,0c-1.7,0.7-4,1.5-5.5,2c-0.6,0.2-1.1,0.3-1.4,0.4L58.1,50l0.2,0.6c0.8,2,2,3.7,3.6,5.1l0.5,0.4   l0.3-0.5c0.2-0.3,0.5-0.7,0.8-1.2c0.9-1.3,2.4-3.2,3.6-4.6l0-0.1c0.7,0.6,1.5,1.1,2.4,1.3l0,0.1c-0.5,1.7-1.3,4.1-1.9,5.5   c-0.2,0.6-0.4,1.1-0.6,1.4L67,58.6l0.6,0.2c2,0.6,4.1,0.7,6.2,0.3l0.6-0.1l-0.2-0.6l-0.1-0.2c-0.1-0.3-0.2-0.7-0.4-1.2   c-0.5-1.8-1.1-4.2-1.3-5.7l0-0.1c0.3-0.1,0.6-0.1,0.9-0.2c0.6-0.2,1.2-0.5,1.7-0.8l0,0.1c1,1.4,2.3,3.5,3.2,4.9   c0.3,0.5,0.6,1,0.7,1.3l0.3,0.5l0.5-0.4c1.7-1.2,3.1-2.8,4.1-4.7l0.3-0.5l-0.6-0.2c-0.3-0.1-0.8-0.3-1.4-0.5   c-1.4-0.6-3.7-1.7-5.3-2.6l-0.1,0c0.4-0.8,0.7-1.7,0.8-2.7l0.1,0c1.8,0.1,4.3,0.4,5.8,0.6c0.6,0.1,1.1,0.2,1.5,0.3l0.6,0.1l0-0.6   C85.6,44.1,85.3,42.3,84.8,40.7z M65.1,44.2c-1.7-0.1-4.2-0.1-5.9,0c0.1-1.7,0.6-3.3,1.4-4.8c1.4,1,3.5,2.3,5,3.1L65.1,44.2z    M74.8,33.5c1.6,0.5,3.1,1.3,4.4,2.4c-1.2,1.2-3,2.9-4.1,4.2l-1.5-0.8C74,37.6,74.5,35.2,74.8,33.5z M64.5,35.1   c0.9-0.6,1.9-1.2,3.1-1.5c0.5-0.2,1-0.3,1.5-0.4c0.1,1.7,0.4,4.1,0.7,5.8l-1.6,0.7C67.1,38.3,65.6,36.4,64.5,35.1z M63.2,54   c-1.2-1.1-2.2-2.5-2.9-4.1c1.6-0.5,3.9-1.3,5.6-2l1,1.4C65.7,50.7,64.2,52.7,63.2,54z M73.2,57.1c-1.7,0.3-3.4,0.2-5-0.3   c0.6-1.6,1.4-3.9,1.9-5.6l1.8,0.1C72.2,52.9,72.7,55.4,73.2,57.1z M81.9,51.1c-0.8,1.4-1.9,2.7-3.3,3.7c-0.9-1.5-2.2-3.7-3.2-5   l1.2-1.3C78.1,49.4,80.3,50.5,81.9,51.1z M73.1,50.5c-3,1-6.1-0.6-7.1-3.6c-1-3,0.6-6.1,3.6-7.1c3-1,6.1,0.6,7.1,3.6   C77.7,46.3,76.1,49.5,73.1,50.5z M77.6,44.9l-0.3-1.7c1.6-0.7,3.8-1.8,5.3-2.6c0.1,0.2,0.2,0.5,0.3,0.7c0.5,1.4,0.7,2.8,0.6,4.2   C81.8,45.3,79.3,45,77.6,44.9z"/><path d="M69.8,40.4c-2.6,0.9-4,3.7-3.2,6.3c0.9,2.6,3.7,4,6.3,3.2c2.6-0.9,4-3.7,3.2-6.3C75.2,41,72.4,39.6,69.8,40.4z M68.1,47.1   c-0.4,0.1-0.9-0.1-1-0.5c-0.1-0.4,0.1-0.9,0.5-1c0.4-0.1,0.9,0.1,1,0.5C68.7,46.5,68.5,46.9,68.1,47.1z M68.3,42.3   c-0.1-0.4,0.1-0.9,0.5-1c0.4-0.1,0.9,0.1,1,0.5c0.1,0.4-0.1,0.9-0.5,1C68.9,43,68.5,42.8,68.3,42.3z M71.6,49.7   c-0.4,0.1-0.9-0.1-1-0.5c-0.1-0.4,0.1-0.9,0.5-1c0.4-0.1,0.9,0.1,1,0.5C72.3,49.1,72,49.5,71.6,49.7z M71.9,46.8   c-0.9,0.3-2-0.2-2.3-1.1c-0.3-0.9,0.2-2,1.1-2.3c0.9-0.3,2,0.2,2.3,1.1C73.4,45.5,72.9,46.5,71.9,46.8z M73.8,42.8   c-0.4,0.1-0.9-0.1-1-0.5c-0.1-0.4,0.1-0.9,0.5-1c0.4-0.1,0.9,0.1,1,0.5C74.5,42.2,74.3,42.7,73.8,42.8z M75.2,47   c-0.4,0.1-0.9-0.1-1-0.5c-0.1-0.4,0.1-0.9,0.5-1c0.4-0.1,0.9,0.1,1,0.5C75.9,46.4,75.7,46.9,75.2,47z"/></g><g><path d="M41.6,27.7c3.5-2.8,9.5-2.3,9.5-2.3c-9.2,2.6-11.2,12-26.6,12.9c-6.3,0.4-8.4,4.7-8.4,4.7c3.5-2.2,5.4-0.3,11.6,1   c6.2,1.4,11.1-2,11.1-2c-4,7.2-13,7.6-18.4,7.7s-7.7,3.2-7.7,3.2c5.3-2.8,16,2.6,8.4,11.3C13.5,72.9,5,68,5,68   c3.1,8.8,15.3,7.1,21.9,4.3c10.8-4.6,14.4,0.4,14.4,0.4c-4.2,0.4-7.5,2.7-9.2,5.2c-1.6,2.5-1.5,5.1-1.5,5.1s5-7.5,22.2-4.4   c9.1,1.6,15.4-5.7,15.4-5.7c-1.6,4.7,2.2,6.8,2.2,6.8c2-6.3,12.6-5.8,19-14.6c3.8-5.1,5.2-9.9,5.6-14.4c-2,7.6-7.8,14.1-15.9,16.8   c-12.7,4.2-26.2-2.5-30.3-14.9s2.9-25.8,15.5-30c8.5-2.8,17.3-0.7,23.5,4.6c-6.3-7.9-14.6-9.8-19.6-9.9   C47.1,16.7,41.6,27.7,41.6,27.7z"/></g><g><path d="M41.6,27.7c3.5-2.8,9.5-2.3,9.5-2.3c-9.2,2.6-11.2,12-26.6,12.9c-6.3,0.4-8.4,4.7-8.4,4.7c3.5-2.2,5.4-0.3,11.6,1   c6.2,1.4,11.1-2,11.1-2c-4,7.2-13,7.6-18.4,7.7s-7.7,3.2-7.7,3.2c5.3-2.8,16,2.6,8.4,11.3C13.5,72.9,5,68,5,68   c3.1,8.8,15.3,7.1,21.9,4.3c10.8-4.6,14.4,0.4,14.4,0.4c-4.2,0.4-7.5,2.7-9.2,5.2c-1.6,2.5-1.5,5.1-1.5,5.1s5-7.5,22.2-4.4   c9.1,1.6,15.4-5.7,15.4-5.7c-1.6,4.7,2.2,6.8,2.2,6.8c2-6.3,12.6-5.8,19-14.6c3.8-5.1,5.2-9.9,5.6-14.4c-2,7.6-7.8,14.1-15.9,16.8   c-12.7,4.2-26.2-2.5-30.3-14.9s2.9-25.8,15.5-30c8.5-2.8,17.3-0.7,23.5,4.6c-6.3-7.9-14.6-9.8-19.6-9.9   C47.1,16.7,41.6,27.7,41.6,27.7z"/></g><text x="0" y="115" fill="#000000" font-size="5px" font-weight="bold" font-family="'Helvetica Neue', Helvetica, Arial-Unicode, Arial, Sans-serif"></text><text x="0" y="120" fill="#000000" font-size="5px" font-weight="bold" font-family="'Helvetica Neue', Helvetica, Arial-Unicode, Arial, Sans-serif"></text></svg>